<svg width="138" height="26" viewBox="0 0 138 26" fill="none" xmlns="http://www.w3.org/2000/svg">
<path d="M13.2112 1.16846V19.2985H13.1762C13.1762 22.7635 10.6212 25.2835 8.03118 25.2835C4.63618 25.2835 2.78118 22.5535 2.78118 19.2985V1.16846H0.961182V19.2985C0.961182 22.8335 3.83118 25.8785 7.36618 25.8785C10.9012 25.8785 13.8062 23.2185 13.8062 19.2985V1.16846H13.2112ZM29.1283 1.16846V21.8185L19.3283 1.16846H17.5083V25.6685H18.1033V2.46346L29.1283 25.6685H29.7583V1.16846H29.1283ZM57.0569 1.16846V13.4185H44.8069V6.06846H42.9519V20.7685H44.8069V14.0485H57.0569V25.6685H58.8769V1.16846H57.0569ZM44.1769 25.2835C38.7519 25.2835 34.3769 19.8585 34.3769 13.4185C34.3769 7.01346 38.7519 1.58846 44.1769 1.58846C47.4669 1.58846 49.5669 4.10846 50.4769 6.69846H52.1569C50.9319 3.51346 48.2369 0.993456 44.1769 0.993456C37.7369 0.993456 32.5569 6.66346 32.5569 13.4185C32.5569 20.2085 37.7369 25.8785 44.1769 25.8785C48.2369 25.8785 51.3869 23.1135 52.7519 20.1735H52.1569C50.5119 23.3585 47.4669 25.2835 44.1769 25.2835ZM76.2022 25.6685H78.0572L71.3022 1.16846H69.4822L60.9072 25.6685H61.5022L64.5122 17.0935H73.8572L76.2022 25.6685ZM64.7222 16.4985L69.7272 2.14846L73.6822 16.4985H64.7222ZM87.928 13.7335C90.378 12.8585 92.478 10.4435 92.478 7.60846C92.478 4.07346 89.608 1.20345 86.073 1.20345V1.16846H80.228V25.6685H82.048V14.0485H86.353C88.908 14.0485 91.848 17.6535 91.848 25.6685H93.703C93.703 19.7885 91.218 14.9235 87.928 13.7335ZM86.073 13.4185H82.048V1.79846H86.073C88.593 1.83346 90.623 4.42346 90.623 7.60846C90.623 10.8285 88.733 13.4185 86.073 13.4185ZM92.9937 1.16846V1.79846H98.4887V25.6685H100.344V1.79846H105.839V1.16846H92.9937ZM116.673 1.79846V1.16846H107.503V25.6685H116.673V25.0735H109.323V12.1935H114.853V11.5985H109.323V1.79846H116.673ZM125.639 1.16846H118.919V25.6685H125.639C132.079 25.6685 137.294 20.2085 137.294 13.4185C137.294 6.66346 132.079 1.16846 125.639 1.16846ZM125.639 25.0735H120.739V1.79846H125.639C131.064 1.79846 135.439 7.01346 135.439 13.4185C135.439 19.8585 131.064 25.0735 125.639 25.0735Z" fill="#F9F5EC"/>
</svg>
