<svg width="35" height="43" viewBox="0 0 35 43" fill="none" xmlns="http://www.w3.org/2000/svg">
<path d="M34.2516 21.2856C34.2577 23.6433 34.0785 25.998 33.7154 28.3289C33.4313 30.102 32.9379 31.8369 32.2451 33.4989C31.7131 34.7916 31.0066 36.0089 30.1446 37.1184C29.0753 38.4573 27.7377 39.5685 26.2137 40.3837C23.6156 41.7118 20.7221 42.3913 17.7907 42.3618C16.3714 42.4012 14.9514 42.3095 13.5497 42.0878C12.0442 41.8601 10.5782 41.4291 9.19372 40.8073C7.10519 39.8783 5.32001 38.4025 4.03552 36.5432C2.3723 34.0352 1.29231 31.2007 0.871777 28.2399C0.431728 25.474 0.262591 22.6733 0.366662 19.8759C0.429575 17.5848 0.706792 15.3042 1.19485 13.0625C1.50381 11.6494 1.96448 10.2723 2.56917 8.95387C3.54563 6.68502 5.14458 4.72443 7.18925 3.28888C8.76396 2.23856 10.5293 1.49215 12.3905 1.08979C15.1288 0.510802 17.951 0.416048 20.7234 0.810018C22.9906 1.07022 25.1658 1.8385 27.0799 3.05508C28.4119 3.90179 29.5639 4.99231 30.4727 6.26664C31.962 8.45022 32.9894 10.9032 33.4944 13.4812C33.9958 16.0525 34.2517 18.6639 34.2586 21.2817L34.2516 21.2856ZM8.32051 3.75843C8.28567 3.76511 8.25199 3.77664 8.22049 3.79267C6.80556 4.76293 5.62498 6.02439 4.76168 7.48846C3.71337 9.31945 3.00238 11.3164 2.6612 13.3882C2.38513 14.9612 2.20509 16.5548 2.07606 18.1464C1.87282 20.846 1.9093 23.5577 2.18509 26.2511C2.36634 28.6591 2.88116 31.0318 3.71544 33.3042C4.13355 34.4189 4.69736 35.4761 5.39284 36.4493C6.71977 38.284 8.5795 39.6867 10.7311 40.4757C11.0892 40.6097 11.4532 40.732 11.7723 40.8445C11.9484 39.876 12.1154 38.9614 12.2844 38.0379C12.1984 38.0213 12.0844 37.9959 11.9704 37.9783C10.7546 37.8057 9.58239 37.4133 8.51356 36.821C7.90324 36.5151 7.38375 36.0607 7.00517 35.5014C6.62658 34.9422 6.40166 34.297 6.35206 33.628C6.30101 32.8784 6.48536 32.1315 6.88043 31.4872C7.27549 30.843 7.86241 30.3322 8.56257 30.0232C9.94695 29.3119 11.4955 28.9618 13.0586 29.0068C14.6393 28.9665 16.2128 29.2287 17.6907 29.7786C17.7254 29.8001 17.7644 29.8141 17.805 29.8197C17.8457 29.8253 17.8871 29.8225 17.9265 29.8113C17.9659 29.8001 18.0025 29.7808 18.0337 29.7548C18.065 29.7288 18.0902 29.6966 18.1078 29.6603C18.3919 29.2514 18.7239 28.8728 19.008 28.4649C19.8051 27.4074 20.1671 26.0957 20.0222 24.7896C19.8785 23.767 19.5809 22.7708 19.139 21.8334C18.5009 20.3983 17.7787 18.9965 17.1096 17.5761C16.4253 16.1712 15.8684 14.7103 15.4452 13.2102C14.9957 11.6016 14.9137 9.91603 15.2051 8.27301C15.3161 7.66651 15.4562 7.06391 15.5952 6.40066C14.885 6.43294 14.1859 6.42903 13.4947 6.49848C11.9748 6.62545 10.5433 7.25115 9.43277 8.27399C9.32144 8.3866 9.25907 8.53702 9.25874 8.69366C9.29658 9.6336 9.49959 10.5602 9.85887 11.4327C10.0777 11.97 10.3859 12.4681 10.7711 12.9069C11.4713 13.6758 12.2604 14.3674 13.0096 15.0943C14.0247 16.0583 14.9301 17.1269 15.7102 18.2814C16.2429 19.064 16.635 19.9298 16.8695 20.8414C17.1759 22.0537 17.0656 23.3309 16.5554 24.4756C16.1116 25.5827 15.2692 26.4928 14.1869 27.0347C13.4459 27.4263 12.6057 27.6017 11.7658 27.5401C10.9259 27.4786 10.1218 27.1826 9.44877 26.6874C8.43585 25.9825 7.63845 25.021 7.14224 23.9063C6.5528 22.628 6.13782 21.2796 5.90796 19.8955C5.39581 17.505 5.36184 15.0401 5.80793 12.6369C6.03059 11.4484 6.45344 10.3043 7.05922 9.25125C7.37678 8.8687 7.65613 8.45726 7.89342 8.02258C7.99703 7.53122 8.03335 7.02856 8.00144 6.52783C8.00144 6.49653 8.00844 6.46522 8.01144 6.43001C8.11147 5.54079 8.21149 4.65059 8.31751 3.75256L8.32051 3.75843ZM31.4119 30.0858C31.2119 29.5409 31.0218 29.0176 30.8288 28.4952C30.264 26.9742 29.8242 25.4116 29.5135 23.8221C29.4901 23.7544 29.4521 23.6923 29.402 23.6401C29.352 23.588 29.2911 23.547 29.2234 23.5199C27.6895 22.9502 26.2724 22.1163 25.0394 21.0576C24.1163 20.2526 23.2994 19.3381 22.6078 18.3352C21.8783 17.3465 21.3409 16.235 21.0225 15.0561C20.579 13.1991 20.5978 11.265 21.0775 9.41658C21.0857 9.36056 21.0809 9.30346 21.0636 9.24947C21.0463 9.19548 21.0169 9.14595 20.9775 9.10452C20.3773 8.58996 19.7772 8.06073 19.135 7.59607C18.467 7.13369 17.7141 6.80155 16.9175 6.61783C16.8773 6.70792 16.8438 6.80077 16.8175 6.89565C16.6515 7.75357 16.4344 8.60757 16.3424 9.47331C16.2187 10.6784 16.3379 11.8955 16.6935 13.0556C17.1265 14.4994 17.6791 15.9062 18.3459 17.2621C18.761 18.1073 19.159 18.9603 19.5751 19.8055C20.1389 20.9118 20.6115 22.0603 20.9885 23.2401C21.2729 24.0474 21.387 24.9026 21.3239 25.7543C21.2608 26.6059 21.0218 27.4361 20.6214 28.1949C20.2633 28.8562 19.7822 29.4539 19.3571 30.0799L19.157 30.3734C22.3848 32.506 28.3062 32.1137 31.4129 30.0907L31.4119 30.0858ZM8.06046 10.0524C7.95519 10.2178 7.85968 10.389 7.77439 10.565C7.24473 11.77 6.92328 13.0526 6.82316 14.3606C6.5744 17.3546 7.04008 20.3641 8.18348 23.152C8.60798 24.2882 9.41504 25.2493 10.472 25.8774C10.9103 26.1451 11.4106 26.3 11.9265 26.3277C12.4424 26.3554 12.9571 26.255 13.4227 26.0359C14.1184 25.7206 14.7067 25.2164 15.1178 24.5834C15.5288 23.9504 15.7452 23.2152 15.7412 22.4653C15.7798 21.1643 15.3728 19.888 14.585 18.839C13.4732 17.292 12.1809 15.877 10.7341 14.6228C9.95958 13.9956 9.33107 13.2138 8.89065 12.3298C8.58057 11.5902 8.33852 10.8243 8.06046 10.0524ZM31.4969 31.5003C31.1678 31.6578 30.9098 31.7987 30.6387 31.9063C29.371 32.4283 28.0347 32.7741 26.6688 32.9335C25.4153 33.0716 24.1497 33.0683 22.8969 32.9237C21.3803 32.7534 19.9187 32.2667 18.6109 31.4964C18.5731 31.4664 18.529 31.4449 18.4817 31.4335C18.4344 31.4221 18.3851 31.421 18.3373 31.4303C18.2896 31.4397 18.2445 31.4592 18.2053 31.4875C18.1662 31.5159 18.1339 31.5523 18.1108 31.5943C17.7487 32.0371 17.3843 32.4783 17.0175 32.9178C16.0494 34.0495 15.1796 35.2583 14.4169 36.5314C14.3419 36.6576 14.2849 36.7936 14.2169 36.9227L14.2669 37.0313C15.4482 36.9619 16.6335 36.9335 17.8087 36.8112C18.954 36.6948 20.0843 36.4512 21.2295 36.3338C22.3003 36.2412 23.3758 36.4489 24.3303 36.9325C25.2311 37.3678 26.0687 37.9185 26.8208 38.5701C26.8468 38.599 26.879 38.6219 26.9151 38.6371C26.9512 38.6524 26.9904 38.6596 27.0297 38.6583C27.069 38.657 27.1075 38.6472 27.1425 38.6296C27.1775 38.6119 27.208 38.587 27.2319 38.5564C28.1326 37.7911 28.9185 36.9056 29.5665 35.9259C30.4235 34.5475 31.0742 33.0562 31.4989 31.4974L31.4969 31.5003ZM22.2308 10.2246C22.2082 10.2589 22.1907 10.2961 22.1787 10.3351C21.9231 11.7193 21.9313 13.1378 22.2028 14.5191C22.6433 16.2062 23.5135 17.7566 24.7323 19.0258C25.6519 20.0827 26.7644 20.963 28.0131 21.6221C28.4072 21.8324 28.8193 22.0134 29.2654 22.2227C29.2654 22.0398 29.2764 21.9292 29.2654 21.8197C29.0947 20.4838 29.143 19.1299 29.4084 17.8089C29.5166 17.0496 29.7928 16.3225 30.2177 15.6783C30.6427 15.034 31.2062 14.4882 31.869 14.0789C31.9153 14.0393 31.9516 13.9899 31.9752 13.9345C31.9988 13.879 32.009 13.8189 32.005 13.759C31.951 13.3677 31.866 12.9891 31.784 12.6056C31.654 12.0001 31.651 12.0011 31.0498 12.1058C31.0188 12.1116 30.9868 12.1126 30.9498 12.1175C29.6402 12.3169 28.3101 12.3544 26.9909 12.229C25.7624 12.1326 24.577 11.7422 23.5391 11.0923C23.1 10.8096 22.6699 10.5142 22.2278 10.2197L22.2308 10.2246ZM17.0856 30.8841C17.0469 30.86 17.0064 30.8387 16.9645 30.8205C14.9858 30.1798 12.8679 30.068 10.8301 30.4967C9.98714 30.6583 9.19534 31.013 8.51956 31.5317C8.24185 31.7396 8.01518 32.0056 7.85614 32.3103C7.6971 32.615 7.6097 32.9505 7.60034 33.2925C7.59498 33.818 7.7436 34.334 8.02862 34.7796C8.31364 35.2251 8.72315 35.5815 9.20872 35.8066C10.2691 36.374 11.4405 36.7151 12.6455 36.8073C12.7013 36.8053 12.7559 36.7909 12.8052 36.7652C12.8544 36.7394 12.897 36.7029 12.9296 36.6586C13.3357 35.9963 13.6868 35.2989 14.1299 34.662C14.716 33.8198 15.3662 33.0196 15.9993 32.2086C16.3434 31.7674 16.7095 31.3419 17.0846 30.887L17.0856 30.8841ZM31.2639 10.8204C31.2459 10.7362 31.2379 10.6854 31.2229 10.6374C30.7493 9.08375 30.01 7.6198 29.0363 6.30773C28.297 5.35136 27.4122 4.51142 26.4127 3.81713C26.3551 3.78269 26.2899 3.76231 26.2225 3.75772C26.1551 3.75312 26.0876 3.76444 26.0256 3.79072C25.683 4.01408 25.3613 4.26681 25.0644 4.54592C23.9192 5.70976 23.0826 7.13009 22.6279 8.6829C22.618 8.72318 22.6176 8.76512 22.6266 8.8056C22.6356 8.84607 22.6538 8.88404 22.6799 8.91669C23.36 9.60898 24.179 10.1565 25.0855 10.525C25.992 10.8934 26.9666 11.0749 27.9481 11.0581C29.0593 11.1007 30.172 11.0207 31.2649 10.8194L31.2639 10.8204ZM25.9466 39.4574C25.178 38.8088 24.3124 38.279 23.38 37.8863C22.4701 37.5364 21.477 37.4478 20.5174 37.631C19.4991 37.808 18.4799 38.0105 17.4516 38.0898C16.2634 38.1876 15.0651 38.1485 13.8708 38.1817C13.8152 38.1842 13.7608 38.1991 13.712 38.2252C13.6631 38.2513 13.6209 38.2879 13.5887 38.3324C13.2881 39.1702 13.1297 40.0505 13.1196 40.9384C13.1196 41.1028 13.1706 41.182 13.3427 41.2055C14.1899 41.3199 15.0331 41.4804 15.8843 41.5537C17.8177 41.6998 19.7627 41.558 21.6526 41.1331C23.1744 40.8285 24.6285 40.2611 25.9466 39.4574ZM9.21773 6.69609L9.31775 6.74011C9.41777 6.68239 9.50779 6.61881 9.60682 6.56696C10.0315 6.31785 10.4696 6.09123 10.9191 5.88806C12.4612 5.29813 14.1216 5.06381 15.7713 5.2033C15.8501 5.21738 15.9315 5.20211 15.9994 5.16047C16.0674 5.11884 16.1169 5.05385 16.1383 4.9783C16.5074 4.17125 16.8865 3.36812 17.2896 2.57574C17.4897 2.18445 17.7477 1.82347 18.0078 1.40185C17.7237 1.3862 17.5077 1.35979 17.2836 1.36468C14.8149 1.3518 12.3686 1.82383 10.0899 2.7528C10.0031 2.78407 9.92678 2.83831 9.86957 2.90946C9.81235 2.98062 9.77644 3.06591 9.76585 3.15584C9.68983 3.59213 9.59181 4.02549 9.5258 4.46277C9.41277 5.20427 9.31775 5.94969 9.21573 6.69315L9.21773 6.69609ZM21.5596 7.85237C22.214 5.94758 23.4028 4.26115 24.9904 2.98562C23.3416 2.21243 21.5702 1.71953 19.7522 1.52805C19.666 1.5087 19.5756 1.51919 19.4965 1.55772C19.4173 1.59625 19.3543 1.66044 19.3181 1.73935C18.932 2.37814 18.5039 2.99345 18.1428 3.64496C17.8247 4.22016 17.5767 4.83254 17.3236 5.37057C18.0928 5.72959 18.852 6.01915 19.5391 6.42316C20.2263 6.82717 20.8714 7.35836 21.5596 7.85237ZM32.5992 23.2215C32.6925 20.5761 32.5855 17.9277 32.2791 15.2978C32.0961 15.4445 31.97 15.5325 31.859 15.6372C31.1433 16.379 30.6905 17.3263 30.5677 18.3391C30.3527 19.7081 30.3527 21.1012 30.5677 22.4702C30.5747 22.5225 30.5938 22.5725 30.6234 22.6166C30.653 22.6606 30.6925 22.6975 30.7387 22.7246C31.3389 22.8977 31.939 23.0474 32.5962 23.2205L32.5992 23.2215ZM32.0861 28.3445L32.2251 28.326C32.3251 27.2294 32.4361 26.1347 32.5172 25.0381C32.5632 24.413 32.5402 24.412 31.906 24.2858L30.8758 24.0765C31.1752 25.5254 31.5797 26.9517 32.0861 28.3445Z" fill="#F9F5EC"/>
</svg>
