<svg width="165" height="270" viewBox="0 0 165 270" fill="none" xmlns="http://www.w3.org/2000/svg">
<path opacity="0.5" d="M256.947 159.075C256.994 177.182 255.636 195.265 252.885 213.165C250.732 226.782 246.994 240.105 241.745 252.869C237.715 262.796 232.363 272.144 225.831 280.665C217.73 290.947 207.596 299.48 196.05 305.741C176.366 315.94 154.444 321.158 132.235 320.932C121.482 321.235 110.724 320.53 100.104 318.828C88.6975 317.079 77.5908 313.769 67.1017 308.994C51.2784 301.86 37.7534 290.526 28.0217 276.247C15.4207 256.987 7.23831 235.22 4.05227 212.481C0.718337 191.24 -0.563091 169.732 0.22538 148.25C0.702028 130.655 2.8023 113.14 6.49997 95.9253C8.84077 85.0738 12.3309 74.4977 16.9122 64.3729C24.3101 46.949 36.4242 31.8926 51.9153 20.8681C63.8457 12.8021 77.2207 7.06996 91.3211 3.98003C112.067 -0.466393 133.449 -1.19406 154.454 1.83146C171.631 3.8297 188.111 9.72978 202.612 19.0726C212.704 25.575 221.432 33.9497 228.317 43.7361C239.601 60.5051 247.385 79.3432 251.21 99.1406C255.009 118.888 256.948 138.942 257 159.045L256.947 159.075ZM60.486 24.4741C60.222 24.5253 59.9668 24.6139 59.7282 24.737C49.0083 32.1882 40.0639 41.8757 33.5233 53.1192C25.581 67.1804 20.1943 82.5164 17.6094 98.427C15.5179 110.507 14.1538 122.745 13.1763 134.968C11.6364 155.699 11.9128 176.524 14.0023 197.209C15.3755 215.701 19.2759 233.922 25.5967 251.374C28.7644 259.934 33.036 268.052 38.3051 275.526C48.3583 289.616 62.4482 300.389 78.7491 306.448C81.4621 307.477 84.2205 308.416 86.6379 309.28C87.9716 301.842 89.2372 294.818 90.5179 287.727C89.8661 287.599 89.0022 287.403 88.1383 287.268C78.9276 285.943 70.0463 282.929 61.9486 278.381C57.3246 276.032 53.3888 272.542 50.5206 268.247C47.6523 263.952 45.9482 258.997 45.5724 253.86C45.1857 248.104 46.5824 242.368 49.5755 237.42C52.5686 232.472 57.0153 228.549 62.3199 226.177C72.8083 220.714 84.5406 218.026 96.3832 218.371C108.359 218.062 120.28 220.075 131.477 224.299C131.74 224.463 132.035 224.571 132.343 224.614C132.651 224.657 132.965 224.635 133.264 224.549C133.562 224.463 133.839 224.316 134.076 224.116C134.313 223.916 134.504 223.668 134.637 223.39C136.789 220.249 139.305 217.342 141.458 214.209C147.496 206.088 150.239 196.015 149.142 185.985C148.053 178.132 145.798 170.481 142.45 163.282C137.615 152.261 132.144 141.496 127.074 130.588C121.89 119.799 117.671 108.58 114.464 97.0597C111.059 84.7066 110.438 71.7619 112.646 59.1442C113.487 54.4865 114.548 49.8588 115.601 44.7653C110.221 45.0132 104.924 44.9832 99.6873 45.5165C88.1717 46.4916 77.3267 51.2967 68.9128 59.1517C68.0693 60.0165 67.5967 61.1716 67.5942 62.3746C67.8809 69.5929 69.419 76.7085 72.1411 83.4095C73.799 87.5354 76.1343 91.3609 79.0523 94.7308C84.3569 100.636 90.336 105.947 96.0119 111.529C103.702 118.932 110.562 127.139 116.473 136.004C120.508 142.014 123.479 148.663 125.256 155.665C127.577 164.974 126.741 174.782 122.876 183.573C119.513 192.075 113.131 199.065 104.931 203.226C99.3176 206.233 92.9514 207.58 86.5885 207.108C80.2255 206.635 74.1329 204.362 69.034 200.559C61.3598 195.146 55.3185 187.762 51.5591 179.201C47.0933 169.385 43.9493 159.029 42.2078 148.4C38.3277 130.042 38.0703 111.113 41.4499 92.6574C43.1369 83.5301 46.3405 74.7438 50.9301 66.6567C53.336 63.7188 55.4524 60.5592 57.2502 57.221C58.0352 53.4475 58.3104 49.5873 58.0686 45.7419C58.0686 45.5015 58.1217 45.2611 58.1444 44.9907C58.9022 38.1618 59.66 31.3255 60.4633 24.429L60.486 24.4741ZM235.433 226.657C233.917 222.473 232.477 218.454 231.015 214.442C226.736 202.762 223.404 190.761 221.05 178.555C220.873 178.035 220.585 177.558 220.206 177.157C219.826 176.757 219.365 176.442 218.852 176.234C207.231 171.859 196.495 165.455 187.153 157.325C180.159 151.143 173.97 144.119 168.731 136.418C163.203 128.825 159.132 120.289 156.72 111.236C153.36 96.9743 153.503 82.1216 157.137 67.9263C157.198 67.4961 157.162 67.0576 157.031 66.643C156.9 66.2283 156.677 65.848 156.379 65.5298C151.832 61.5782 147.285 57.514 142.42 53.9456C137.359 50.3946 131.654 47.844 125.619 46.4331C125.314 47.1249 125.061 47.838 124.862 48.5666C123.604 55.1551 121.959 61.7135 121.262 68.362C120.325 77.6164 121.228 86.9633 123.922 95.8727C127.203 106.96 131.389 117.764 136.441 128.176C139.586 134.667 142.602 141.218 145.754 147.709C150.025 156.205 153.606 165.025 156.462 174.085C158.617 180.285 159.481 186.853 159.003 193.393C158.525 199.933 156.715 206.309 153.681 212.136C150.968 217.214 147.323 221.804 144.102 226.612L142.587 228.866C167.041 245.243 211.903 242.231 235.441 226.695L235.433 226.657ZM58.5158 72.8094C57.7182 74.0796 56.9946 75.3939 56.3484 76.7459C52.3356 85.9997 49.9002 95.8498 49.1417 105.894C47.257 128.887 50.7851 151.999 59.4478 173.409C62.6639 182.134 68.7784 189.515 76.7864 194.339C80.1066 196.395 83.8975 197.584 87.8062 197.797C91.7149 198.01 95.6144 197.239 99.1417 195.556C104.412 193.134 108.87 189.263 111.984 184.401C115.098 179.54 116.738 173.894 116.708 168.135C116.999 158.144 113.916 148.342 107.947 140.286C99.5246 128.406 89.7333 117.54 78.7719 107.908C72.904 103.091 68.1422 97.0876 64.8055 90.2985C62.4563 84.619 60.6225 78.7368 58.5158 72.8094ZM236.077 237.521C233.584 238.73 231.629 239.812 229.575 240.638C219.97 244.647 209.846 247.302 199.498 248.526C190.001 249.587 180.412 249.562 170.921 248.451C159.43 247.144 148.357 243.406 138.449 237.49C138.162 237.26 137.828 237.095 137.47 237.007C137.112 236.919 136.738 236.911 136.376 236.983C136.014 237.055 135.673 237.205 135.376 237.422C135.08 237.64 134.835 237.92 134.66 238.242C131.917 241.642 129.156 245.031 126.377 248.406C119.043 257.097 112.452 266.38 106.674 276.157C106.106 277.126 105.674 278.171 105.159 279.162L105.538 279.996C114.487 279.463 123.467 279.245 132.371 278.306C141.048 277.412 149.611 275.541 158.288 274.64C166.401 273.929 174.549 275.523 181.78 279.237C188.606 282.58 194.951 286.809 200.65 291.813C200.846 292.035 201.09 292.211 201.364 292.328C201.638 292.445 201.934 292.501 202.232 292.491C202.53 292.481 202.822 292.405 203.087 292.27C203.352 292.135 203.583 291.943 203.764 291.708C210.588 285.831 216.542 279.031 221.451 271.507C227.944 260.922 232.874 249.469 236.092 237.498L236.077 237.521ZM165.874 74.1316C165.703 74.3947 165.57 74.6805 165.48 74.9805C163.543 85.6104 163.605 96.5037 165.662 107.111C168.999 120.067 175.592 131.974 184.827 141.721C191.794 149.837 200.222 156.598 209.683 161.66C212.668 163.275 215.791 164.665 219.17 166.272C219.17 164.867 219.254 164.018 219.17 163.177C217.877 152.918 218.243 142.52 220.254 132.376C221.073 126.545 223.166 120.961 226.386 116.013C229.605 111.066 233.875 106.874 238.896 103.731C239.247 103.427 239.522 103.048 239.701 102.622C239.879 102.196 239.957 101.735 239.927 101.274C239.517 98.2692 238.873 95.3619 238.252 92.417C237.267 87.7667 237.244 87.7743 232.69 88.5781C232.455 88.6232 232.212 88.6307 231.932 88.6683C222.01 90.1995 211.933 90.4872 201.938 89.5247C192.631 88.7842 183.65 85.7864 175.786 80.7952C172.459 78.6241 169.201 76.3553 165.851 74.094L165.874 74.1316ZM126.892 232.788C126.599 232.603 126.293 232.44 125.976 232.299C110.984 227.379 94.9381 226.521 79.4994 229.813C73.1128 231.054 67.1139 233.778 61.9941 237.761C59.8901 239.358 58.1727 241.401 56.9678 243.741C55.7628 246.08 55.1007 248.657 55.0298 251.283C54.9891 255.319 56.1151 259.282 58.2745 262.703C60.434 266.125 63.5365 268.862 67.2153 270.59C75.249 274.948 84.1236 277.568 93.2535 278.276C93.6764 278.261 94.0901 278.15 94.4631 277.952C94.8361 277.754 95.1586 277.474 95.4057 277.134C98.4824 272.048 101.142 266.692 104.499 261.801C108.94 255.333 113.866 249.187 118.663 242.96C121.27 239.571 124.043 236.304 126.885 232.81L126.892 232.788ZM234.311 78.7067C234.175 78.0606 234.114 77.67 234.001 77.3019C230.413 65.3703 224.812 54.1278 217.435 44.0516C211.833 36.7071 205.13 30.2567 197.558 24.9248C197.121 24.6604 196.627 24.5039 196.116 24.4686C195.606 24.4333 195.095 24.5202 194.625 24.722C192.029 26.4373 189.592 28.3782 187.343 30.5216C178.666 39.4595 172.328 50.367 168.882 62.2919C168.808 62.6013 168.805 62.9234 168.873 63.2342C168.941 63.545 169.079 63.8366 169.277 64.0874C174.43 69.4038 180.635 73.6085 187.503 76.4382C194.37 79.2679 201.754 80.6616 209.19 80.5322C217.609 80.86 226.039 80.2451 234.319 78.6992L234.311 78.7067ZM194.026 298.627C188.203 293.646 181.645 289.578 174.581 286.562C167.687 283.875 160.163 283.195 152.893 284.601C145.178 285.961 137.456 287.516 129.666 288.125C120.663 288.876 111.585 288.575 102.537 288.831C102.115 288.85 101.704 288.964 101.333 289.164C100.963 289.365 100.644 289.646 100.4 289.988C98.1221 296.422 96.9216 303.182 96.8455 310.001C96.8455 311.263 97.232 311.872 98.5354 312.052C104.954 312.931 111.342 314.163 117.791 314.726C132.44 315.848 147.175 314.759 161.494 311.496C173.023 309.157 184.04 304.799 194.026 298.627ZM67.2835 47.0341L68.0413 47.3721C68.7991 46.9289 69.4812 46.4406 70.2314 46.0424C73.449 44.1294 76.7679 42.389 80.1738 40.8288C91.8569 36.2983 104.436 34.4988 116.935 35.57C117.532 35.6782 118.149 35.5609 118.664 35.2411C119.178 34.9214 119.554 34.4224 119.716 33.8422C122.512 27.6444 125.384 21.4766 128.438 15.3915C129.954 12.3865 131.909 9.61439 133.879 6.37651C131.727 6.25631 130.09 6.05349 128.393 6.09105C109.689 5.99212 91.1558 9.61716 73.8916 16.7513C73.2335 16.9914 72.6556 17.4079 72.2221 17.9543C71.7886 18.5008 71.5165 19.1558 71.4363 19.8464C70.8604 23.197 70.1177 26.525 69.6176 29.8831C68.7613 35.5775 68.0414 41.302 67.2684 47.0115L67.2835 47.0341ZM160.789 55.9138C165.747 41.2859 174.754 28.3347 186.782 18.5392C174.29 12.6014 160.869 8.81614 147.096 7.34563C146.443 7.19708 145.758 7.27762 145.158 7.57352C144.558 7.86942 144.081 8.36237 143.807 8.96833C140.882 13.874 137.638 18.5993 134.902 23.6026C132.493 28.02 130.613 32.7228 128.696 36.8546C134.524 39.6117 140.275 41.8354 145.481 44.9381C150.688 48.0407 155.575 52.12 160.789 55.9138ZM244.428 173.942C245.135 153.627 244.324 133.288 242.003 113.091C240.616 114.218 239.661 114.894 238.82 115.698C233.398 121.395 229.968 128.67 229.037 136.448C227.408 146.961 227.408 157.659 229.037 168.173C229.09 168.574 229.235 168.959 229.459 169.297C229.683 169.635 229.982 169.919 230.333 170.126C234.88 171.456 239.427 172.605 244.405 173.935L244.428 173.942ZM240.541 213.285L241.594 213.143C242.352 204.721 243.193 196.315 243.807 187.893C244.155 183.093 243.981 183.085 239.176 182.116L231.371 180.508C233.64 191.636 236.704 202.589 240.541 213.285Z" fill="#F7F6EF"/>
</svg>
