<svg width="146" height="12" viewBox="0 0 146 12" fill="none" xmlns="http://www.w3.org/2000/svg">
<path d="M7.11482 11.3228H7.96282L4.87482 0.122753H4.04282L0.12282 11.3228H0.39482L1.77082 7.40275H6.04282L7.11482 11.3228ZM1.86682 7.13075L4.15482 0.570753L5.96282 7.13075H1.86682ZM17.1227 8.81075C16.3707 10.2668 14.9787 11.1468 13.4747 11.1468C10.9947 11.1468 8.9947 8.66675 8.9947 5.72275C8.9947 2.79475 10.9947 0.314754 13.4747 0.314754C14.9787 0.314754 15.9387 1.46675 16.3547 2.65075H17.1227C16.5627 1.19475 15.3307 0.0427532 13.4747 0.0427532C10.5307 0.0427532 8.1627 2.63475 8.1627 5.72275C8.1627 8.82675 10.5307 11.4188 13.4747 11.4188C15.3307 11.4188 16.7707 10.1548 17.3947 8.81075H17.1227ZM26.8727 8.81075C26.1207 10.2668 24.7287 11.1468 23.2247 11.1468C20.7447 11.1468 18.7447 8.66675 18.7447 5.72275C18.7447 2.79475 20.7447 0.314754 23.2247 0.314754C24.7287 0.314754 25.6887 1.46675 26.1047 2.65075H26.8727C26.3127 1.19475 25.0807 0.0427532 23.2247 0.0427532C20.2807 0.0427532 17.9127 2.63475 17.9127 5.72275C17.9127 8.82675 20.2807 11.4188 23.2247 11.4188C25.0807 11.4188 26.5207 10.1548 27.1447 8.81075H26.8727ZM32.4284 0.410753V0.122753H28.2364V11.3228H32.4284V11.0508H29.0684V5.16275H31.5964V4.89075H29.0684V0.410753H32.4284ZM33.9352 2.36275C33.9352 1.19475 34.4632 0.410753 35.7272 0.410753C36.5752 0.410753 37.0712 0.938753 37.1352 1.24275H37.8552C37.7592 0.938753 37.1352 0.122753 35.7272 0.122753C34.1432 0.122753 33.0872 1.00275 33.0872 2.52275C33.0872 5.14675 37.5672 6.10675 37.5672 8.90675C37.5672 10.2028 36.9432 11.0508 35.3272 11.0508C34.2392 11.0508 33.8072 10.6828 33.6472 10.2028H32.8152C32.9272 10.6188 33.6472 11.3228 35.3272 11.3228C37.0072 11.3228 38.4152 10.5548 38.4152 8.81075C38.4152 5.45075 33.9352 4.76275 33.9352 2.36275ZM40.0914 2.36275C40.0914 1.19475 40.6194 0.410753 41.8834 0.410753C42.7314 0.410753 43.2274 0.938753 43.2914 1.24275H44.0114C43.9154 0.938753 43.2914 0.122753 41.8834 0.122753C40.2994 0.122753 39.2434 1.00275 39.2434 2.52275C39.2434 5.14675 43.7234 6.10675 43.7234 8.90675C43.7234 10.2028 43.0994 11.0508 41.4834 11.0508C40.3954 11.0508 39.9634 10.6828 39.8034 10.2028H38.9714C39.0834 10.6188 39.8034 11.3228 41.4834 11.3228C43.1634 11.3228 44.5714 10.5548 44.5714 8.81075C44.5714 5.45075 40.0914 4.76275 40.0914 2.36275ZM48.7753 0.122753V0.410753H51.2873V11.3228H52.1353V0.410753H54.6473V0.122753H48.7753ZM59.3653 0.0427532C56.4213 0.0427532 54.0533 2.63475 54.0533 5.72275C54.0533 8.82675 56.4213 11.4188 59.3653 11.4188C62.3093 11.4188 64.6933 8.82675 64.6933 5.72275C64.6933 2.63475 62.3093 0.0427532 59.3653 0.0427532ZM59.3653 11.1468C56.8853 11.1468 54.8853 8.66675 54.8853 5.72275C54.8853 2.79475 56.8853 0.314754 59.3653 0.314754C61.8453 0.314754 63.8453 2.79475 63.8453 5.72275C63.8453 8.66675 61.8453 11.1468 59.3653 11.1468ZM70.8184 11.3228V0.122753H69.9864V11.3228H70.8184ZM77.7828 0.122753V9.56275L73.3028 0.122753H72.4708V11.3228H72.7428V0.714753L77.7828 11.3228H78.0708V0.122753H77.7828ZM82.7772 0.122753H79.7052V11.3228H82.7772C85.7212 11.3228 88.1052 8.82675 88.1052 5.72275C88.1052 2.63475 85.7212 0.122753 82.7772 0.122753ZM82.7772 11.0508H80.5372V0.410753H82.7772C85.2572 0.410753 87.2572 2.79475 87.2572 5.72275C87.2572 8.66675 85.2572 11.0508 82.7772 11.0508ZM90.1934 11.3228V0.122753H89.3614V11.3228H90.1934ZM94.4668 10.7468L92.0828 0.122753H91.2508L93.7628 11.3228H94.6108L97.4108 0.122753H97.1228L94.4668 10.7468ZM99.2403 11.3228V0.122753H98.4083V11.3228H99.2403ZM103.965 0.122753H100.893V11.3228H103.965C106.909 11.3228 109.293 8.82675 109.293 5.72275C109.293 2.63475 106.909 0.122753 103.965 0.122753ZM103.965 11.0508H101.725V0.410753H103.965C106.445 0.410753 108.445 2.79475 108.445 5.72275C108.445 8.66675 106.445 11.0508 103.965 11.0508ZM116.069 0.122753V8.41075H116.053C116.053 9.99475 114.885 11.1468 113.701 11.1468C112.149 11.1468 111.301 9.89875 111.301 8.41075V0.122753H110.469V8.41075C110.469 10.0268 111.781 11.4188 113.397 11.4188C115.013 11.4188 116.341 10.2028 116.341 8.41075V0.122753H116.069ZM123.99 11.3228H124.838L121.75 0.122753H120.918L116.998 11.3228H117.27L118.646 7.40275H122.918L123.99 11.3228ZM118.742 7.13075L121.03 0.570753L122.838 7.13075H118.742ZM126.662 11.0508V0.122753H125.83V11.3228H130.022V11.0508H126.662ZM131.928 11.3228V0.122753H131.096V11.3228H131.928ZM132.947 0.122753V0.410753H135.459V11.3228H136.307V0.410753H138.819V0.122753H132.947ZM142.509 5.43475L140.125 0.122753H139.293L141.805 5.72275V11.3228H142.653V5.72275L145.453 0.122753H145.165L142.509 5.43475Z" fill="#F9F5EC"/>
</svg>
